<?xml version="1.0" encoding="UTF-8" ?>
<!-- Created with Inkscape (http://www.inkscape.org/) -->

<svg
   width="300"
   height="300"
   viewBox="0 0 106 106"
   version="1.1"
   id="svg1"
   xmlns="http://www.w3.org/2000/svg"
   xmlns:svg="http://www.w3.org/2000/svg"
>
   <circle style="fill:#6f6f6f;" id="path13" cx="53" cy="53" r="53" />
   <path
      id="shadow-2"
      style="fill:#b3b3b3;stroke-width:0.417417"
      transform="matrix(0.87506116,0,0,0.87506116,6.1583964,7.2439828)"
      d="m 21.951716,3.9172642 c -0.427435,0 -0.64113,0.213695 -0.64113,0.64113 0,0.427434 0.107112,0.90838 0.320829,1.442673 0.267147,0.480864 0.534398,0.828185 0.801544,1.041902 0.641153,0.587722 1.495932,2.137143 2.564519,4.6483198 -0.480865,0.427435 -1.229061,0.908381 -2.244218,1.442674 -0.961728,0.480864 -1.789995,0.828185 -2.484575,1.041901 -0.641152,0.160288 -0.96143,0.401026 -0.96143,0.721602 0,0.267147 0.42739,0.64098 1.282259,1.121845 -5.182643,2.190601 -8.41511,3.285589 -9.697414,3.285589 -0.267145,0 -0.614466,-0.05303 -1.0419008,-0.159885 C 9.4761942,19.038156 9.0753173,18.9846 8.6478813,18.9846 c -0.374005,0 -0.561186,0.267251 -0.561186,0.801544 0,0.480864 0.694642,1.602895 2.0838047,3.366062 1.389161,1.709738 2.965625,2.564517 4.728792,2.564517 0.694581,0 1.442248,-0.107112 2.243688,-0.320829 -0.961728,1.496021 -1.442144,2.77872 -1.442144,3.847307 0,1.068585 0.240208,2.110017 0.721072,3.125174 0.480864,0.961728 1.121949,1.442674 1.923388,1.442674 0.854869,0 1.603067,-0.42739 2.244218,-1.282259 1.763167,-2.29746 4.648314,-4.43441 8.655512,-6.411294 0.05343,0.534293 -0.427517,1.362559 -1.442674,2.484575 -1.015156,1.068586 -1.950005,1.709671 -2.804874,1.923388 -0.854869,0.213717 -1.415885,0.480439 -1.683031,0.801015 -0.213718,0.320576 -0.32083,0.881592 -0.32083,1.683031 -5.984083,2.778324 -9.56387,4.247676 -10.739315,4.407963 -0.587723,0.106858 -0.961556,0.294041 -1.121844,0.561187 -0.160288,0.267146 -0.240358,0.694536 -0.240358,1.282259 0,0.534293 0.186653,0.93517 0.560658,1.202315 0.374005,0.213718 1.042133,0.373858 2.003861,0.480715 2.564606,0.267147 4.247653,0.748093 5.049092,1.442674 -5.770365,3.686622 -9.7775437,6.33156 -12.0215749,7.93444 -2.244031,1.54945 -3.95412,2.40423 -5.129565,2.564518 -0.37400505,0.05343 -0.66776945,0.160012 -0.88148675,0.3203 -0.21371708,0.106858 -0.40036928,0.427666 -0.56065728,0.961958 -0.1602879,0.534294 -0.2408867,1.041753 -0.2408867,1.522616 0,0.427435 0.267251,0.774756 0.80154398,1.041903 0.58772235,0.267146 1.60317075,0.614466 3.04576175,1.041901 1.442591,0.427434 2.430997,0.641129 2.96529,0.641129 0.587722,0 1.095182,-0.240208 1.5226162,-0.721072 0.427434,-0.534293 1.228659,-1.255976 2.4041047,-2.164275 1.228873,-0.908298 2.404461,-1.683008 3.526476,-2.32416 0.641152,2.190601 1.282237,3.820621 1.923388,4.889207 0.641152,1.068587 1.389349,1.602559 2.244218,1.602559 0.908298,0 2.217511,-0.934849 3.927249,-2.804875 1.549449,1.282304 2.965245,3.259114 4.247548,5.93058 0.694581,1.389162 1.255597,2.083802 1.683032,2.083802 0.427434,0 0.747712,-0.828265 0.961429,-2.484575 0.213717,-1.602879 0.320829,-3.258882 0.320829,-4.96862 0,-1.709738 -0.02705,-2.912368 -0.08047,-3.606949 1.335733,0.587723 2.457764,0.882016 3.366062,0.882016 1.389162,0 2.083802,-0.69464 2.083802,-2.083803 0,-0.320576 -0.02651,-0.641383 -0.07994,-0.961959 1.389163,-3.205758 2.431124,-6.144461 3.125704,-8.815926 0,2.29746 -0.05355,3.980506 -0.160414,5.049092 -0.106859,1.015157 0.160393,2.110675 0.801544,3.28612 0.694581,1.122015 1.36218,2.484255 2.003331,4.087134 0.213717,0.427434 0.454455,0.641129 0.721602,0.641129 1.389161,0 2.297497,-4.514636 2.724932,-13.54419 3.15233,-2.618036 6.037476,-4.648403 8.655512,-6.090994 0.106858,6.892381 0.507206,14.185581 1.201786,21.879402 0.14883,1.637128 0.25482,2.605684 0.386478,3.975426 0.233163,2.565352 0.333955,3.586578 0.627838,6.027236 0.73267,4.96421 1.633446,8.740251 3.129467,11.38279 1.49602,2.586315 3.339205,4.610104 5.529807,6.071935 2.244032,1.405606 5.102664,2.502157 8.57557,3.289295 3.526335,0.78714 7.079607,1.180611 10.659372,1.180611 3.579765,0 6.732161,-0.646644 9.457052,-1.939801 2.7249,-1.349381 4.08714,-3.569907 4.08714,-6.66224 0,-2.136521 -0.90834,-3.317463 -2.72493,-3.542359 -1.763173,-0.224897 -3.953676,-1.292965 -6.571713,-3.204588 -2.618037,-1.967849 -5.423113,-4.666765 -8.415155,-8.096444 1.015157,-1.630502 2.163701,-3.232868 3.446005,-4.807147 1.282303,-1.630502 2.324264,-2.755006 3.125704,-3.373473 0.80144,-0.618466 1.335942,-1.124282 1.603089,-1.517852 0.320575,-0.393569 0.427158,-0.787569 0.320299,-1.181139 0.80144,-1.012036 1.843401,-1.883369 3.125704,-2.614283 0.694582,0.787139 1.041903,1.546126 1.041903,2.277042 0,1.180709 -1.255656,2.305213 -3.766834,3.373473 -0.374006,0.168673 -0.560658,0.53419 -0.560658,1.096432 0,0.506018 0.186652,0.983879 0.560658,1.433674 0.374004,0.393569 0.85495,0.590305 1.442672,0.590305 l 2.244218,-0.08418 c 2.083748,0 3.472498,0.08439 4.167078,0.253064 0.74801,0.168673 1.38962,0.253063 1.92392,0.253063 1.335727,0 2.404194,-0.393471 3.205639,-1.180609 0.85487,-0.78714 1.28226,-1.940128 1.28226,-3.458182 0,-1.518054 -0.64108,-3.091937 -1.923395,-4.722439 -1.228867,-1.686728 -2.778284,-2.980014 -4.648314,-3.879601 -1.81659,-0.899588 -3.259431,-1.349495 -4.328017,-1.349495 -1.549451,0 -2.75155,0.927769 -3.606419,2.783169 -1.763168,0.899587 -3.659908,2.192873 -5.690222,3.8796 -2.030315,1.686727 -3.659804,3.26061 -4.888679,4.72244 -0.641151,0.787139 -1.683112,1.181139 -3.125704,1.181139 -1.442592,0 -2.564622,-0.337563 -3.366062,-1.012254 -0.80144,-0.674691 -1.977026,-1.264896 -3.526477,-1.770915 -1.496021,-0.562242 -2.591008,-0.843368 -3.285589,-0.843368 -0.641152,0 -0.961959,0.112344 -0.961959,0.337241 0,0.39357 0.454432,1.264903 1.362731,2.614284 0.961728,1.293157 1.629326,2.502052 2.003331,3.626537 0.427434,1.124484 0.641129,2.108161 0.641129,2.951525 0,0.843363 0.480946,2.024305 1.442674,3.542359 1.015157,1.46183 2.190743,2.78307 3.526476,3.963778 1.335734,1.124485 2.350652,1.686738 3.045233,1.686738 0.694581,0 1.095457,-0.646644 1.202316,-1.939801 0.160288,-1.349381 0.614191,-2.698575 1.362202,-4.047957 0.801439,0.899588 2.137164,2.642253 4.007191,5.228568 1.870026,2.586314 2.805405,4.245117 2.805405,4.976031 0,0.674692 -0.400877,1.152553 -1.202317,1.433674 -0.74801,0.224897 -1.976623,0.421632 -3.686362,0.590305 -1.709739,0.168672 -3.419827,0.253064 -5.129564,0.253064 -1.709739,0 -3.392785,-0.22469 -5.049093,-0.674483 -1.656309,-0.449795 -3.12566,-1.152875 -4.407964,-2.108686 -1.282308,-0.955815 -2.110574,-1.77071 -2.48458,-2.445401 -0.374005,-0.674691 -0.89135,-1.972687 -1.122048,-3.073252 -0.51461,-2.454983 -0.577838,-3.060409 -0.740934,-4.669361 -0.129952,-1.356295 -0.375026,-3.377509 -0.452599,-4.814328 -0.240758,-2.837154 -0.268044,-3.706751 -0.384998,-6.041107 L 58.337266,46.233395 c -0.213717,-4.808638 -0.320829,-8.869371 -0.320829,-12.181989 1.282304,-0.534293 2.511447,-0.961683 3.686892,-1.282258 1.228873,-0.374006 2.030097,-0.560658 2.404102,-0.560658 l 0.882017,0.07994 c 0.374004,0 0.694283,-0.08008 0.961429,-0.240358 0.267146,-0.213717 0.480841,-0.507481 0.641129,-0.881487 0.160288,-0.374004 0.240358,-0.854951 0.240358,-1.442673 0,-0.587723 -0.614043,-1.335919 -1.842916,-2.244217 -1.228875,-0.908299 -2.377948,-1.362202 -3.446534,-1.362202 -1.015157,0 -2.137188,0.293764 -3.366062,0.881487 -0.213717,-0.961728 -0.667621,-1.736438 -1.362202,-2.324161 -0.69458,-0.587722 -1.416264,-0.881486 -2.164274,-0.881486 -0.748011,0 -1.495678,0.34732 -2.243689,1.041901 -0.748011,0.694581 -1.122374,1.28211 -1.122374,1.762973 0,0.427435 0.0806,0.7212 0.240887,0.881488 0.480864,0.534292 0.721072,1.175377 0.721072,1.923387 l -8.335211,4.969151 c -0.160288,-1.816597 3.8e-4,-3.072254 0.481243,-3.766834 0.534294,-0.74801 0.801544,-1.496208 0.801544,-2.244218 0,-1.282304 -0.534502,-2.083527 -1.603088,-2.404103 -0.320576,-0.05343 -0.587826,-0.32068 -0.801544,-0.801544 -0.213717,-0.534293 -0.320299,-1.041752 -0.320299,-1.522616 3.953769,-1.976885 7.052609,-3.980738 9.296641,-6.011052 2.244031,-2.030314 3.366061,-3.472622 3.366061,-4.327491 0,-0.908298 -0.641085,-1.976773 -1.923387,-3.205647 -1.282304,-1.2288748 -2.457892,-1.8434458 -3.526477,-1.8434458 -1.068586,0 -2.137061,0.400876 -3.205647,1.202316 -1.068587,0.7480108 -1.603089,1.2819828 -1.603089,1.6025588 0,0.160288 0.187182,0.240358 0.561186,0.240358 0.427435,0 1.308729,-0.266722 2.644461,-0.801016 -1.068586,1.976885 -4.621331,5.583186 -10.658843,10.819258 -1.228873,0.160289 -2.324392,0.641234 -3.286119,1.442674 -0.908298,-0.374005 -1.709522,-0.561187 -2.404102,-0.561187 -0.641153,0 -1.415863,0.08007 -2.324162,0.240357 1.282304,-1.54945 3.312671,-3.09887 6.090995,-4.64832 1.122016,-0.641152 1.84317,-1.095055 2.163745,-1.362202 0.320576,-0.320575 0.480715,-0.747965 0.480715,-1.282259 0,-2.083743 -1.255656,-2.992079 -3.766834,-2.724932 C 33.465763,8.0851172 31.115119,5.7074302 27.321638,5.2799952 25.451612,5.0662782 24.06233,4.7189582 23.154031,4.2380942 22.780027,4.0243772 22.37915,3.9172642 21.951716,3.9172642 Z M 20.349157,23.152206 c 0.05343,0.160288 0.07994,0.34694 0.07994,0.560658 0,0.213716 -0.213695,0.50801 -0.64113,0.882016 -0.374006,0.320576 -0.747839,0.480714 -1.121845,0.480714 -0.320575,0 -0.561313,-0.107111 -0.7216,-0.320829 0.587722,-0.748011 1.389475,-1.281983 2.404632,-1.602559 z m 17.150609,4.007191 c 0.641152,0.480864 1.014985,1.014836 1.121844,1.602559 0.160288,0.587722 0.240887,2.084117 0.240887,4.488436 0,2.404318 -0.294294,4.167434 -0.882016,5.28945 -0.961728,-0.534294 -1.870064,-0.801544 -2.724933,-0.801544 -0.801439,0 -2.217234,0.187181 -4.247548,0.561187 0.160288,-0.80144 0.908484,-1.443054 2.244218,-1.923919 1.335732,-0.534292 2.136956,-0.93464 2.404103,-1.201786 0.267146,-0.320576 0.400771,-0.881591 0.400771,-1.683031 0,-0.854869 -0.186652,-1.442928 -0.560657,-1.763503 -0.320576,-0.320576 -1.148843,-0.534271 -2.484575,-0.64113 0.05343,-0.641151 0.640958,-1.121568 1.762974,-1.442144 1.389162,-0.427434 2.297497,-1.255701 2.724932,-2.484575 z m -1.442674,15.387636 c -0.74801,2.404319 -2.217361,4.621338 -4.407963,6.651652 -0.641152,0 -1.202167,-0.08007 -1.683031,-0.240357 -0.213717,-0.801441 -0.3203,-1.709776 -0.3203,-2.724933 0,-1.015157 0.02651,-1.656242 0.07994,-1.923388 2.083743,-0.908299 4.194179,-1.495827 6.331351,-1.762974 z m -11.380444,3.846776 c 0.106858,0.374006 0.160415,0.854952 0.160415,1.442674 0,0.534293 -0.160139,1.015239 -0.480715,1.442674 -0.267147,0.374005 -0.908232,0.827908 -1.923389,1.362201 -1.015157,0.480864 -2.004091,0.854698 -2.965818,1.121844 C 18.986276,51.12205 18.719555,50.42794 18.666125,49.679928 19.895,48.82506 21.898323,47.729542 24.676648,46.393809 Z m 0,7.613611 c 0.106858,0.267146 0.160415,0.640981 0.160415,1.121844 0,0.480864 -0.08008,0.935297 -0.240358,1.362731 -0.534292,0.05343 -0.988726,-0.133752 -1.36273,-0.561187 0.213717,-1.228874 0.694662,-1.869958 1.442673,-1.923388 z m 19.451475,10.878553 c -0.106859,0 -0.160415,0.140298 -0.160415,0.421419 0,0.281121 0.05356,0.758983 0.160415,1.433674 0.106859,0.67469 -0.133879,2.080321 -0.721602,4.216842 -0.534292,2.13652 -1.041751,3.486244 -1.522616,4.048486 -0.801439,0.955812 -1.202316,2.361442 -1.202316,4.216842 0,1.855399 0.561015,4.188271 1.683031,6.999482 1.122016,2.754987 2.056865,4.132664 2.804875,4.132664 0.374005,0 0.641257,-0.30908 0.801544,-0.927546 0.534293,-2.473867 1.01524,-4.048279 1.442674,-4.722969 0.480864,-0.730916 0.988323,-1.85542 1.522616,-3.373475 0.587723,-1.574278 0.882017,-3.345426 0.882017,-5.313273 0,-1.967849 -0.557119,-3.956853 -1.282789,-5.734694 -0.520389,-1.274916 -0.740011,-1.585528 -1.255013,-2.410588 -0.95457,-1.32854 -2.831845,-2.986864 -3.152421,-2.986864 z"
   />
   <path
      id="shadow-1"
      style="fill:#333333"
      transform="matrix(0.87506116,0,0,0.87506116,11.400875,6.9109691)" 
      d="m 17.498089,9.4453364 c -0.427435,0 -0.64113,0.2136951 -0.64113,0.6411296 0,0.427434 0.107112,0.90838 0.320829,1.442673 0.267147,0.480864 0.534398,0.828185 0.801544,1.041902 0.641153,0.587722 1.495932,2.137143 2.564519,4.64832 -0.480865,0.427435 -1.229061,0.908381 -2.244218,1.442674 -0.961728,0.480864 -1.789995,0.828185 -2.484575,1.041901 -0.641152,0.160288 -0.96143,0.401026 -0.96143,0.721602 0,0.267147 0.42739,0.64098 1.282259,1.121845 -5.182643,2.190601 -8.4151103,3.285589 -9.6974143,3.285589 -0.267145,0 -0.614466,-0.05303 -1.041901,-0.159885 -0.374005,-0.106859 -0.774882,-0.160415 -1.202317,-0.160415 -0.374005,0 -0.561186,0.267251 -0.561186,0.801544 0,0.480864 0.694641,1.602895 2.083804,3.366062 1.389161,1.709738 2.9656256,2.564517 4.7287923,2.564517 0.694581,0 1.442248,-0.107112 2.243688,-0.320829 -0.961728,1.496021 -1.442144,2.77872 -1.442144,3.847307 0,1.068585 0.240208,2.110017 0.721072,3.125174 0.480864,0.961728 1.121949,1.442674 1.923388,1.442674 0.854869,0 1.603067,-0.42739 2.244218,-1.282259 1.763167,-2.29746 4.648314,-4.43441 8.655512,-6.411294 0.05343,0.534293 -0.427517,1.362559 -1.442674,2.484575 -1.015156,1.068586 -1.950005,1.709671 -2.804874,1.923388 -0.854869,0.213717 -1.415885,0.480439 -1.683031,0.801015 -0.213718,0.320576 -0.32083,0.881592 -0.32083,1.683031 -5.984083,2.778324 -9.5638697,4.247676 -10.7393153,4.407963 -0.587723,0.106858 -0.961556,0.294041 -1.121844,0.561187 -0.160288,0.267146 -0.240358,0.694536 -0.240358,1.282259 0,0.534293 0.186653,0.93517 0.560658,1.202315 0.374005,0.213718 1.0421326,0.373858 2.0038616,0.480715 2.5646057,0.267147 4.2476527,0.748093 5.0490917,1.442674 -5.7703647,3.686622 -9.7775443,6.33156 -12.0215745,7.93444 -2.24403103,1.54945 -3.95412,2.40423 -5.1295649,2.564518 -0.3740051,0.05343 -0.6677695,0.160012 -0.8814868,0.3203 -0.2137171,0.106858 -0.4003693,0.427666 -0.5606573,0.961958 -0.1602879,0.534294 -0.2408867,1.041753 -0.2408867,1.522616 0,0.427435 0.267251,0.774756 0.801544,1.041903 0.5877224,0.267146 1.6031705,0.614466 3.04576197,1.041901 1.44259138,0.427434 2.43099653,0.641129 2.96528973,0.641129 0.5877224,0 1.0951817,-0.240208 1.5226162,-0.721072 0.427434,-0.534293 1.228658,-1.255976 2.404104,-2.164275 1.228873,-0.908298 2.4044616,-1.683008 3.5264765,-2.32416 0.6411518,2.190601 1.2822368,3.820621 1.9233878,4.889207 0.641152,1.068587 1.389349,1.602559 2.244218,1.602559 0.908298,0 2.217511,-0.934849 3.927249,-2.804875 1.549449,1.282304 2.965245,3.259114 4.247548,5.93058 0.694581,1.389162 1.255597,2.083802 1.683032,2.083802 0.427434,0 0.747712,-0.828265 0.961429,-2.484575 0.213717,-1.602879 0.320829,-3.258882 0.320829,-4.96862 0,-1.709738 -0.02705,-2.912368 -0.08047,-3.606949 1.335733,0.587723 2.457764,0.882016 3.366062,0.882016 1.389162,0 2.083802,-0.69464 2.083802,-2.083803 0,-0.320576 -0.02651,-0.641383 -0.07994,-0.961959 1.389163,-3.205758 2.431124,-6.144461 3.125704,-8.815926 0,2.29746 -0.05355,3.980506 -0.160414,5.049092 -0.106859,1.015157 0.160393,2.110675 0.801544,3.28612 0.694581,1.122015 1.36218,2.484255 2.003331,4.087134 0.213717,0.427434 0.454455,0.641129 0.721602,0.641129 1.389161,0 2.297497,-4.514636 2.724932,-13.54419 3.15233,-2.618036 6.037476,-4.648403 8.655512,-6.090994 0.106858,6.892381 0.507206,14.185581 1.201786,21.879402 0.14883,1.637128 0.25482,2.605684 0.386478,3.975426 0.233163,2.565352 0.333955,3.586578 0.627838,6.027236 0.73267,4.96421 1.633446,8.740251 3.129467,11.38279 1.49602,2.586315 3.339205,4.610104 5.529807,6.071935 2.244032,1.405606 5.102664,2.502157 8.57557,3.289295 3.526335,0.78714 7.079607,1.180611 10.659372,1.180611 3.579765,0 6.732161,-0.646644 9.457056,-1.939801 2.724895,-1.349381 4.087134,-3.569907 4.087134,-6.66224 0,-2.136521 -0.908335,-3.317463 -2.724932,-3.542359 -1.763169,-0.224897 -3.953672,-1.292965 -6.571709,-3.204588 -2.618037,-1.967849 -5.423113,-4.666765 -8.415155,-8.096444 1.015157,-1.630502 2.163701,-3.232868 3.446005,-4.807147 1.282303,-1.630502 2.324264,-2.755006 3.125704,-3.373473 0.80144,-0.618466 1.335942,-1.124282 1.603089,-1.517852 0.320575,-0.393569 0.427158,-0.787569 0.320299,-1.181139 0.80144,-1.012036 1.843401,-1.883369 3.125704,-2.614283 0.694582,0.787139 1.041903,1.546126 1.041903,2.277042 0,1.180709 -1.255656,2.305213 -3.766834,3.373473 -0.374006,0.168673 -0.560658,0.53419 -0.560658,1.096432 0,0.506018 0.186652,0.983879 0.560658,1.433674 0.374004,0.393569 0.85495,0.590305 1.442672,0.590305 l 2.244218,-0.08418 c 2.083745,0 3.472496,0.08439 4.167077,0.253064 0.74801,0.168673 1.389625,0.253063 1.923918,0.253063 1.335734,0 2.404204,-0.393471 3.205644,-1.180609 0.85487,-0.78714 1.28226,-1.940128 1.28226,-3.458182 0,-1.518054 -0.64108,-3.091937 -1.92339,-4.722439 -1.22887,-1.686728 -2.778291,-2.980014 -4.648317,-3.879601 -1.816597,-0.899588 -3.259435,-1.349495 -4.328021,-1.349495 -1.549451,0 -2.75155,0.927769 -3.606419,2.783169 -1.763168,0.899587 -3.659908,2.192873 -5.690222,3.8796 -2.030315,1.686727 -3.659804,3.26061 -4.888679,4.72244 -0.641151,0.787139 -1.683112,1.181139 -3.125704,1.181139 -1.442592,0 -2.564622,-0.337563 -3.366062,-1.012254 -0.80144,-0.674691 -1.977026,-1.264896 -3.526477,-1.770915 -1.496021,-0.562242 -2.591008,-0.843368 -3.285589,-0.843368 -0.641152,0 -0.961959,0.112344 -0.961959,0.337241 0,0.39357 0.454432,1.264903 1.362731,2.614284 0.961728,1.293157 1.629326,2.502052 2.003331,3.626537 0.427434,1.124484 0.641129,2.108161 0.641129,2.951525 0,0.843363 0.480946,2.024305 1.442674,3.542359 1.015157,1.46183 2.190743,2.78307 3.526476,3.963778 1.335734,1.124485 2.350652,1.686738 3.045233,1.686738 0.694581,0 1.095457,-0.646644 1.202316,-1.939801 0.160288,-1.349381 0.614191,-2.698575 1.362202,-4.047957 0.801439,0.899588 2.137164,2.642253 4.007191,5.228568 1.870026,2.586314 2.805405,4.245117 2.805405,4.976031 0,0.674692 -0.400877,1.152553 -1.202317,1.433674 -0.74801,0.224897 -1.976623,0.421632 -3.686362,0.590305 -1.709739,0.168672 -3.419827,0.253064 -5.129564,0.253064 -1.709739,0 -3.392785,-0.22469 -5.049093,-0.674483 -1.656309,-0.449795 -3.12566,-1.152875 -4.407964,-2.108686 -1.282308,-0.955815 -2.110574,-1.77071 -2.48458,-2.445401 -0.374005,-0.674691 -0.89135,-1.972687 -1.122048,-3.073252 -0.51461,-2.454983 -0.577838,-3.060409 -0.740934,-4.669361 -0.129952,-1.356295 -0.375026,-3.377509 -0.452599,-4.814328 -0.240758,-2.837154 -0.268044,-3.706751 -0.384998,-6.041107 L 53.883639,51.761467 C 53.669922,46.952829 53.56281,42.892096 53.56281,39.579478 c 1.282304,-0.534293 2.511447,-0.961683 3.686892,-1.282258 1.228873,-0.374006 2.030097,-0.560658 2.404102,-0.560658 l 0.882017,0.07994 c 0.374004,0 0.694283,-0.08008 0.961429,-0.240358 0.267146,-0.213717 0.480841,-0.507481 0.641129,-0.881487 0.160288,-0.374004 0.240358,-0.854951 0.240358,-1.442673 0,-0.587723 -0.614043,-1.335919 -1.842916,-2.244217 -1.228875,-0.908299 -2.377948,-1.362202 -3.446534,-1.362202 -1.015157,0 -2.137188,0.293764 -3.366062,0.881487 -0.213717,-0.961728 -0.667621,-1.736438 -1.362202,-2.324161 -0.69458,-0.587722 -1.416264,-0.881486 -2.164274,-0.881486 -0.748011,0 -1.495678,0.34732 -2.243689,1.041901 -0.748011,0.694581 -1.122374,1.28211 -1.122374,1.762973 0,0.427435 0.0806,0.7212 0.240887,0.881488 0.480864,0.534292 0.721072,1.175377 0.721072,1.923387 l -8.335211,4.969151 c -0.160288,-1.816597 3.8e-4,-3.072254 0.481243,-3.766834 0.534294,-0.74801 0.801544,-1.496208 0.801544,-2.244218 0,-1.282304 -0.534502,-2.083527 -1.603088,-2.404103 -0.320576,-0.05343 -0.587826,-0.32068 -0.801544,-0.801544 -0.213717,-0.534293 -0.320299,-1.041752 -0.320299,-1.522616 3.953769,-1.976885 7.052609,-3.980738 9.296641,-6.011052 2.244031,-2.030314 3.366061,-3.472622 3.366061,-4.327491 0,-0.908298 -0.641085,-1.976773 -1.923387,-3.205647 -1.282304,-1.228875 -2.457892,-1.843446 -3.526477,-1.843446 -1.068586,0 -2.137061,0.400876 -3.205647,1.202316 -1.068587,0.748011 -1.603089,1.281983 -1.603089,1.602559 0,0.160288 0.187182,0.240358 0.561186,0.240358 0.427435,0 1.308729,-0.266722 2.644461,-0.801016 -1.068586,1.976885 -4.621331,5.583186 -10.658843,10.819258 -1.228873,0.160289 -2.324392,0.641234 -3.286119,1.442674 -0.908298,-0.374005 -1.709522,-0.561187 -2.404102,-0.561187 -0.641153,0 -1.415863,0.08007 -2.324162,0.240357 1.282304,-1.54945 3.312671,-3.09887 6.090995,-4.64832 1.122016,-0.641152 1.84317,-1.095055 2.163745,-1.362202 0.320576,-0.320575 0.480715,-0.747965 0.480715,-1.282259 0,-2.083743 -1.255656,-2.992079 -3.766834,-2.724932 C 29.012136,13.613189 26.661492,11.235502 22.868011,10.808067 20.997985,10.59435 19.608703,10.24703 18.700404,9.7661665 18.3264,9.5524495 17.925523,9.4453364 17.498089,9.4453364 Z M 15.89553,28.680278 c 0.05343,0.160288 0.07994,0.34694 0.07994,0.560658 0,0.213716 -0.213695,0.50801 -0.64113,0.882016 -0.374006,0.320576 -0.747839,0.480714 -1.121845,0.480714 -0.320575,0 -0.561313,-0.107111 -0.7216,-0.320829 0.587722,-0.748011 1.389475,-1.281983 2.404632,-1.602559 z m 17.150609,4.007191 c 0.641152,0.480864 1.014985,1.014836 1.121844,1.602559 0.160288,0.587722 0.240887,2.084117 0.240887,4.488436 0,2.404318 -0.294294,4.167434 -0.882016,5.28945 -0.961728,-0.534294 -1.870064,-0.801544 -2.724933,-0.801544 -0.801439,0 -2.217234,0.187181 -4.247548,0.561187 0.160288,-0.80144 0.908484,-1.443054 2.244218,-1.923919 1.335732,-0.534292 2.136956,-0.93464 2.404103,-1.201786 0.267146,-0.320576 0.400771,-0.881591 0.400771,-1.683031 0,-0.854869 -0.186652,-1.442928 -0.560657,-1.763503 -0.320576,-0.320576 -1.148843,-0.534271 -2.484575,-0.64113 0.05343,-0.641151 0.640958,-1.121568 1.762974,-1.442144 1.389162,-0.427434 2.297497,-1.255701 2.724932,-2.484575 z m -1.442674,15.387636 c -0.74801,2.404319 -2.217361,4.621338 -4.407963,6.651652 -0.641152,0 -1.202167,-0.08007 -1.683031,-0.240357 -0.213717,-0.801441 -0.3203,-1.709776 -0.3203,-2.724933 0,-1.015157 0.02651,-1.656242 0.07994,-1.923388 2.083743,-0.908299 4.194179,-1.495827 6.331351,-1.762974 z m -11.380444,3.846776 c 0.106858,0.374006 0.160415,0.854952 0.160415,1.442674 0,0.534293 -0.160139,1.015239 -0.480715,1.442674 -0.267147,0.374005 -0.908232,0.827908 -1.923389,1.362201 -1.015157,0.480864 -2.004091,0.854698 -2.965818,1.121844 -0.480865,-0.641152 -0.747586,-1.335262 -0.801016,-2.083274 1.228875,-0.854868 3.232198,-1.950386 6.010523,-3.286119 z m 0,7.613611 c 0.106858,0.267146 0.160415,0.640981 0.160415,1.121844 0,0.480864 -0.08008,0.935297 -0.240358,1.362731 -0.534292,0.05343 -0.988726,-0.133752 -1.36273,-0.561187 0.213717,-1.228874 0.694662,-1.869958 1.442673,-1.923388 z m 19.451475,10.878553 c -0.106859,0 -0.160415,0.140298 -0.160415,0.421419 0,0.281121 0.05356,0.758983 0.160415,1.433674 0.106859,0.67469 -0.133879,2.080321 -0.721602,4.216842 -0.534292,2.13652 -1.041751,3.486244 -1.522616,4.048486 -0.801439,0.955812 -1.202316,2.361442 -1.202316,4.216842 0,1.855399 0.561015,4.188271 1.683031,6.999482 1.122016,2.754987 2.056865,4.132664 2.804875,4.132664 0.374005,0 0.641257,-0.30908 0.801544,-0.927546 0.534293,-2.473867 1.01524,-4.048279 1.442674,-4.722969 0.480864,-0.730916 0.988323,-1.85542 1.522616,-3.373475 0.587723,-1.574278 0.882017,-3.345426 0.882017,-5.313273 0,-1.967849 -0.557119,-3.956853 -1.282789,-5.734694 -0.520389,-1.274916 -0.740011,-1.585528 -1.255013,-2.410588 -0.95457,-1.32854 -2.831845,-2.986864 -3.152421,-2.986864 z"
   />
   <path
      id="fore-1"
      style="fill:#ffffff;"
      transform="matrix(0.87506116,0,0,0.87506116,6.6104806,4.0793936)" 
      d="m 22.406088,9.7036525 c -0.427435,0 -0.64113,0.213695 -0.64113,0.6411295 0,0.427434 0.107112,0.90838 0.320829,1.442673 0.267147,0.480864 0.534398,0.828185 0.801544,1.041902 0.641153,0.587722 1.495932,2.137143 2.564519,4.64832 -0.480865,0.427435 -1.229061,0.908381 -2.244218,1.442674 -0.961728,0.480864 -1.789995,0.828185 -2.484575,1.041901 -0.641152,0.160288 -0.96143,0.401026 -0.96143,0.721602 0,0.267147 0.42739,0.64098 1.282259,1.121845 -5.182643,2.190601 -8.41511,3.285589 -9.697414,3.285589 -0.267145,0 -0.614466,-0.05303 -1.041901,-0.159885 -0.3740048,-0.106859 -0.7748818,-0.160415 -1.2023167,-0.160415 -0.374005,0 -0.561186,0.267251 -0.561186,0.801544 0,0.480864 0.694641,1.602895 2.0838037,3.366062 1.389161,1.709738 2.965625,2.564517 4.728792,2.564517 0.694581,0 1.442248,-0.107112 2.243688,-0.320829 -0.961728,1.496021 -1.442144,2.77872 -1.442144,3.847307 0,1.068585 0.240208,2.110017 0.721072,3.125174 0.480864,0.961728 1.121949,1.442674 1.923388,1.442674 0.854869,0 1.603067,-0.42739 2.244218,-1.282259 1.763167,-2.29746 4.648314,-4.43441 8.655512,-6.411294 0.05343,0.534293 -0.427517,1.362559 -1.442674,2.484575 -1.015156,1.068586 -1.950005,1.709671 -2.804874,1.923388 -0.854869,0.213717 -1.415885,0.480439 -1.683031,0.801015 -0.213718,0.320576 -0.32083,0.881592 -0.32083,1.683031 -5.984083,2.778324 -9.56387,4.247676 -10.739315,4.407963 -0.587723,0.106858 -0.961556,0.294041 -1.121844,0.561187 -0.160288,0.267146 -0.240358,0.694536 -0.240358,1.282259 0,0.534293 0.186653,0.93517 0.560658,1.202315 0.374005,0.213718 1.042133,0.373858 2.003861,0.480715 2.564606,0.267147 4.247653,0.748093 5.049092,1.442674 -5.770365,3.686622 -9.7775437,6.33156 -12.0215741,7.93444 -2.2440311,1.54945 -3.95412,2.40423 -5.1295649,2.564518 -0.3740051,0.05343 -0.6677695,0.160012 -0.88148675,0.3203 -0.2137171,0.106858 -0.4003693,0.427666 -0.56065728,0.961958 -0.1602879,0.534294 -0.2408867,1.041753 -0.2408867,1.522616 0,0.427435 0.267251,0.774756 0.80154398,1.041903 0.58772235,0.267146 1.60317045,0.614466 3.04576185,1.041901 1.4425914,0.427434 2.4309966,0.641129 2.9652898,0.641129 0.5877224,0 1.0951814,-0.240208 1.5226164,-0.721072 0.427434,-0.534293 1.2286579,-1.255976 2.4041037,-2.164275 1.228873,-0.908298 2.404461,-1.683008 3.526476,-2.32416 0.641152,2.190601 1.282237,3.820621 1.923388,4.889207 0.641152,1.068587 1.389349,1.602559 2.244218,1.602559 0.908298,0 2.217511,-0.934849 3.927249,-2.804875 1.549449,1.282304 2.965245,3.259114 4.247548,5.93058 0.694581,1.389162 1.255597,2.083802 1.683032,2.083802 0.427434,0 0.747712,-0.828265 0.961429,-2.484575 0.213717,-1.602879 0.320829,-3.258882 0.320829,-4.96862 0,-1.709738 -0.02705,-2.912368 -0.08047,-3.606949 1.335733,0.587723 2.457764,0.882016 3.366062,0.882016 1.389162,0 2.083802,-0.69464 2.083802,-2.083803 0,-0.320576 -0.02651,-0.641383 -0.07994,-0.961959 1.389163,-3.205758 2.431124,-6.144461 3.125704,-8.815926 0,2.29746 -0.05355,3.980506 -0.160414,5.049092 -0.106859,1.015157 0.160393,2.110675 0.801544,3.28612 0.694581,1.122015 1.36218,2.484255 2.003331,4.087134 0.213717,0.427434 0.454455,0.641129 0.721602,0.641129 1.389161,0 2.297497,-4.514636 2.724932,-13.54419 3.15233,-2.618036 6.037476,-4.648403 8.655512,-6.090994 0.106858,6.892381 0.507206,14.185581 1.201786,21.879402 0.14883,1.637128 0.25482,2.605684 0.386478,3.975426 0.233163,2.565352 0.333955,3.586578 0.627838,6.027236 0.73267,4.96421 1.633446,8.740251 3.129467,11.38279 1.49602,2.586315 3.339205,4.610104 5.529807,6.071935 2.244032,1.405606 5.102664,2.502157 8.57557,3.289295 3.526335,0.78714 7.079607,1.180611 10.659372,1.180611 3.579765,0 6.732161,-0.646644 9.457056,-1.939801 2.724895,-1.349381 4.087134,-3.569907 4.087134,-6.66224 0,-2.136521 -0.908335,-3.317463 -2.724932,-3.542359 -1.763169,-0.224897 -3.953672,-1.292965 -6.571709,-3.204588 -2.618037,-1.967849 -5.423113,-4.666765 -8.415155,-8.096444 1.015157,-1.630502 2.163701,-3.232868 3.446005,-4.807147 1.282303,-1.630502 2.324264,-2.755006 3.125704,-3.373473 0.80144,-0.618466 1.335942,-1.124282 1.603089,-1.517852 0.320575,-0.393569 0.427158,-0.787569 0.320299,-1.181139 0.80144,-1.012036 1.843401,-1.883369 3.125704,-2.614283 0.694582,0.787139 1.041903,1.546126 1.041903,2.277042 0,1.180709 -1.255656,2.305213 -3.766834,3.373473 -0.374006,0.168673 -0.560658,0.53419 -0.560658,1.096432 0,0.506018 0.186652,0.983879 0.560658,1.433674 0.374004,0.393569 0.85495,0.590305 1.442672,0.590305 l 2.244218,-0.08418 c 2.083745,0 3.472496,0.08439 4.167077,0.253064 0.74801,0.168673 1.389625,0.253063 1.923918,0.253063 1.335738,0 2.404205,-0.393471 3.20565,-1.180609 0.85487,-0.78714 1.28226,-1.940128 1.28226,-3.458182 0,-1.518054 -0.64108,-3.091937 -1.92339,-4.722439 -1.228872,-1.686728 -2.778297,-2.980014 -4.648323,-3.879601 -1.816597,-0.899588 -3.259435,-1.349495 -4.328021,-1.349495 -1.549451,0 -2.75155,0.927769 -3.606419,2.783169 -1.763168,0.899587 -3.659908,2.192873 -5.690222,3.8796 -2.030315,1.686727 -3.659804,3.26061 -4.888679,4.72244 -0.641151,0.787139 -1.683112,1.181139 -3.125704,1.181139 -1.442592,0 -2.564622,-0.337563 -3.366062,-1.012254 -0.80144,-0.674691 -1.977026,-1.264896 -3.526477,-1.770915 -1.496021,-0.562242 -2.591008,-0.843368 -3.285589,-0.843368 -0.641152,0 -0.961959,0.112344 -0.961959,0.337241 0,0.39357 0.454432,1.264903 1.362731,2.614284 0.961728,1.293157 1.629326,2.502052 2.003331,3.626537 0.427434,1.124484 0.641129,2.108161 0.641129,2.951525 0,0.843363 0.480946,2.024305 1.442674,3.542359 1.015157,1.46183 2.190743,2.78307 3.526476,3.963778 1.335734,1.124485 2.350652,1.686738 3.045233,1.686738 0.694581,0 1.095457,-0.646644 1.202316,-1.939801 0.160288,-1.349381 0.614191,-2.698575 1.362202,-4.047957 0.801439,0.899588 2.137164,2.642253 4.007191,5.228568 1.870026,2.586314 2.805405,4.245117 2.805405,4.976031 0,0.674692 -0.400877,1.152553 -1.202317,1.433674 -0.74801,0.224897 -1.976623,0.421632 -3.686362,0.590305 -1.709739,0.168672 -3.419827,0.253064 -5.129564,0.253064 -1.709739,0 -3.392785,-0.22469 -5.049093,-0.674483 -1.656309,-0.449795 -3.12566,-1.152875 -4.407964,-2.108686 -1.282308,-0.955815 -2.110574,-1.77071 -2.48458,-2.445401 -0.374005,-0.674691 -0.89135,-1.972687 -1.122048,-3.073252 -0.51461,-2.454983 -0.577838,-3.060409 -0.740934,-4.669361 -0.129952,-1.356295 -0.375026,-3.377509 -0.452599,-4.814328 -0.240758,-2.837154 -0.268044,-3.706751 -0.384998,-6.041107 L 58.791638,52.019783 c -0.213717,-4.808638 -0.320829,-8.869371 -0.320829,-12.181989 1.282304,-0.534293 2.511447,-0.961683 3.686892,-1.282258 1.228873,-0.374006 2.030097,-0.560658 2.404102,-0.560658 l 0.882017,0.07994 c 0.374004,0 0.694283,-0.08008 0.961429,-0.240358 0.267146,-0.213717 0.480841,-0.507481 0.641129,-0.881487 0.160288,-0.374004 0.240358,-0.854951 0.240358,-1.442673 0,-0.587723 -0.614043,-1.335919 -1.842916,-2.244217 -1.228875,-0.908299 -2.377948,-1.362202 -3.446534,-1.362202 -1.015157,0 -2.137188,0.293764 -3.366062,0.881487 -0.213717,-0.961728 -0.667621,-1.736438 -1.362202,-2.324161 -0.69458,-0.587722 -1.416264,-0.881486 -2.164274,-0.881486 -0.748011,0 -1.495678,0.34732 -2.243689,1.041901 -0.748011,0.694581 -1.122374,1.28211 -1.122374,1.762973 0,0.427435 0.0806,0.7212 0.240887,0.881488 0.480864,0.534292 0.721072,1.175377 0.721072,1.923387 l -8.335211,4.969151 c -0.160288,-1.816597 3.8e-4,-3.072254 0.481243,-3.766834 0.534294,-0.74801 0.801544,-1.496208 0.801544,-2.244218 0,-1.282304 -0.534502,-2.083527 -1.603088,-2.404103 -0.320576,-0.05343 -0.587826,-0.32068 -0.801544,-0.801544 -0.213717,-0.534293 -0.320299,-1.041752 -0.320299,-1.522616 3.953769,-1.976885 7.052609,-3.980738 9.296641,-6.011052 2.244031,-2.030314 3.366061,-3.472622 3.366061,-4.327491 0,-0.908298 -0.641085,-1.976773 -1.923387,-3.205647 -1.282304,-1.228875 -2.457892,-1.843446 -3.526477,-1.843446 -1.068586,0 -2.137061,0.400876 -3.205647,1.202316 -1.068587,0.748011 -1.603089,1.281983 -1.603089,1.602559 0,0.160288 0.187182,0.240358 0.561186,0.240358 0.427435,0 1.308729,-0.266722 2.644461,-0.801016 -1.068586,1.976885 -4.621331,5.583186 -10.658843,10.819258 -1.228873,0.160289 -2.324392,0.641234 -3.286119,1.442674 -0.908298,-0.374005 -1.709522,-0.561187 -2.404102,-0.561187 -0.641153,0 -1.415863,0.08007 -2.324162,0.240357 1.282304,-1.54945 3.312671,-3.09887 6.090995,-4.64832 1.122016,-0.641152 1.84317,-1.095055 2.163745,-1.362202 0.320576,-0.320575 0.480715,-0.747965 0.480715,-1.282259 0,-2.083743 -1.255656,-2.992079 -3.766834,-2.724932 C 33.920135,13.871505 31.569491,11.493818 27.77601,11.066383 25.905984,10.852666 24.516702,10.505346 23.608403,10.024482 23.234399,9.8107655 22.833522,9.7036525 22.406088,9.7036525 Z M 20.803529,28.938594 c 0.05343,0.160288 0.07994,0.34694 0.07994,0.560658 0,0.213716 -0.213695,0.50801 -0.64113,0.882016 -0.374006,0.320576 -0.747839,0.480714 -1.121845,0.480714 -0.320575,0 -0.561313,-0.107111 -0.7216,-0.320829 0.587722,-0.748011 1.389475,-1.281983 2.404632,-1.602559 z m 17.150609,4.007191 c 0.641152,0.480864 1.014985,1.014836 1.121844,1.602559 0.160288,0.587722 0.240887,2.084117 0.240887,4.488436 0,2.404318 -0.294294,4.167434 -0.882016,5.28945 -0.961728,-0.534294 -1.870064,-0.801544 -2.724933,-0.801544 -0.801439,0 -2.217234,0.187181 -4.247548,0.561187 0.160288,-0.80144 0.908484,-1.443054 2.244218,-1.923919 1.335732,-0.534292 2.136956,-0.93464 2.404103,-1.201786 0.267146,-0.320576 0.400771,-0.881591 0.400771,-1.683031 0,-0.854869 -0.186652,-1.442928 -0.560657,-1.763503 -0.320576,-0.320576 -1.148843,-0.534271 -2.484575,-0.64113 0.05343,-0.641151 0.640958,-1.121568 1.762974,-1.442144 1.389162,-0.427434 2.297497,-1.255701 2.724932,-2.484575 z m -1.442674,15.387636 c -0.74801,2.404319 -2.217361,4.621338 -4.407963,6.651652 -0.641152,0 -1.202167,-0.08007 -1.683031,-0.240357 -0.213717,-0.801441 -0.3203,-1.709776 -0.3203,-2.724933 0,-1.015157 0.02651,-1.656242 0.07994,-1.923388 2.083743,-0.908299 4.194179,-1.495827 6.331351,-1.762974 z M 25.13102,52.180197 c 0.106858,0.374006 0.160415,0.854952 0.160415,1.442674 0,0.534293 -0.160139,1.015239 -0.480715,1.442674 -0.267147,0.374005 -0.908232,0.827908 -1.923389,1.362201 -1.015157,0.480864 -2.004091,0.854698 -2.965818,1.121844 -0.480865,-0.641152 -0.747586,-1.335262 -0.801016,-2.083274 1.228875,-0.854868 3.232198,-1.950386 6.010523,-3.286119 z m 0,7.613611 c 0.106858,0.267146 0.160415,0.640981 0.160415,1.121844 0,0.480864 -0.08008,0.935297 -0.240358,1.362731 -0.534292,0.05343 -0.988726,-0.133752 -1.36273,-0.561187 0.213717,-1.228874 0.694662,-1.869958 1.442673,-1.923388 z m 19.451475,10.878553 c -0.106859,0 -0.160415,0.140298 -0.160415,0.421419 0,0.281121 0.05356,0.758983 0.160415,1.433674 0.106859,0.67469 -0.133879,2.080321 -0.721602,4.216842 -0.534292,2.13652 -1.041751,3.486244 -1.522616,4.048486 -0.801439,0.955812 -1.202316,2.361442 -1.202316,4.216842 0,1.855399 0.561015,4.188271 1.683031,6.999482 1.122016,2.754987 2.056865,4.132664 2.804875,4.132664 0.374005,0 0.641257,-0.30908 0.801544,-0.927546 0.534293,-2.473867 1.01524,-4.048279 1.442674,-4.722969 0.480864,-0.730916 0.988323,-1.85542 1.522616,-3.373475 0.587723,-1.574278 0.882017,-3.345426 0.882017,-5.313273 0,-1.967849 -0.557119,-3.956853 -1.282789,-5.734694 -0.520389,-1.274916 -0.740011,-1.585528 -1.255013,-2.410588 -0.95457,-1.32854 -2.831845,-2.986864 -3.152421,-2.986864 z"
   />
</svg>
